<mxfile host="app.diagrams.net" agent="Mozilla/5.0 (Windows NT 10.0; Win64; x64) AppleWebKit/537.36 (KHTML, like Gecko) Chrome/140.0.0.0 Safari/537.36 Edg/140.0.0.0" version="28.2.1">
  <diagram name="第 1 页" id="r_uDwL3qua1b04kyxQjE">
    <mxGraphModel dx="2016" dy="1538" grid="0" gridSize="10" guides="1" tooltips="1" connect="1" arrows="1" fold="1" page="0" pageScale="1" pageWidth="827" pageHeight="1169" math="0" shadow="0">
      <root>
        <mxCell id="0" />
        <mxCell id="1" parent="0" />
        <mxCell id="5X22lZWR7_RaZn1hTIYH-3" style="edgeStyle=orthogonalEdgeStyle;rounded=0;orthogonalLoop=1;jettySize=auto;html=1;shape=filledEdge;endArrow=none;endFill=0;" parent="1" source="5X22lZWR7_RaZn1hTIYH-1" target="5X22lZWR7_RaZn1hTIYH-2" edge="1">
          <mxGeometry relative="1" as="geometry" />
        </mxCell>
        <mxCell id="5X22lZWR7_RaZn1hTIYH-1" value="Actor" style="shape=umlActor;verticalLabelPosition=bottom;verticalAlign=top;html=1;outlineConnect=0;" parent="1" vertex="1">
          <mxGeometry x="-646" y="146" width="30" height="60" as="geometry" />
        </mxCell>
        <mxCell id="5X22lZWR7_RaZn1hTIYH-6" style="rounded=0;orthogonalLoop=1;jettySize=auto;html=1;entryX=0;entryY=0.5;entryDx=0;entryDy=0;dashed=1;dashPattern=8 8;" parent="1" source="5X22lZWR7_RaZn1hTIYH-2" target="5X22lZWR7_RaZn1hTIYH-4" edge="1">
          <mxGeometry relative="1" as="geometry" />
        </mxCell>
        <mxCell id="5X22lZWR7_RaZn1hTIYH-7" style="rounded=0;orthogonalLoop=1;jettySize=auto;html=1;entryX=0;entryY=0.5;entryDx=0;entryDy=0;dashed=1;dashPattern=8 8;" parent="1" source="5X22lZWR7_RaZn1hTIYH-2" target="5X22lZWR7_RaZn1hTIYH-5" edge="1">
          <mxGeometry relative="1" as="geometry" />
        </mxCell>
        <mxCell id="5X22lZWR7_RaZn1hTIYH-2" value="审批流操作" style="ellipse;whiteSpace=wrap;html=1;" parent="1" vertex="1">
          <mxGeometry x="-486" y="136" width="120" height="80" as="geometry" />
        </mxCell>
        <mxCell id="5X22lZWR7_RaZn1hTIYH-9" style="rounded=0;orthogonalLoop=1;jettySize=auto;html=1;entryX=0;entryY=0.5;entryDx=0;entryDy=0;startArrow=none;startFill=0;dashed=1;dashPattern=8 8;" parent="1" source="5X22lZWR7_RaZn1hTIYH-4" target="5X22lZWR7_RaZn1hTIYH-8" edge="1">
          <mxGeometry relative="1" as="geometry" />
        </mxCell>
        <mxCell id="5X22lZWR7_RaZn1hTIYH-11" style="rounded=0;orthogonalLoop=1;jettySize=auto;html=1;entryX=0;entryY=0.5;entryDx=0;entryDy=0;dashed=1;dashPattern=8 8;strokeColor=default;align=center;verticalAlign=middle;fontFamily=Helvetica;fontSize=11;fontColor=default;labelBackgroundColor=default;startArrow=none;startFill=0;endArrow=classic;" parent="1" source="5X22lZWR7_RaZn1hTIYH-4" target="5X22lZWR7_RaZn1hTIYH-10" edge="1">
          <mxGeometry relative="1" as="geometry" />
        </mxCell>
        <mxCell id="5X22lZWR7_RaZn1hTIYH-13" style="rounded=0;orthogonalLoop=1;jettySize=auto;html=1;entryX=0;entryY=0.5;entryDx=0;entryDy=0;dashed=1;dashPattern=8 8;strokeColor=default;align=center;verticalAlign=middle;fontFamily=Helvetica;fontSize=11;fontColor=default;labelBackgroundColor=default;startArrow=none;startFill=0;endArrow=classic;" parent="1" source="5X22lZWR7_RaZn1hTIYH-4" target="5X22lZWR7_RaZn1hTIYH-12" edge="1">
          <mxGeometry relative="1" as="geometry" />
        </mxCell>
        <mxCell id="5X22lZWR7_RaZn1hTIYH-15" style="rounded=0;orthogonalLoop=1;jettySize=auto;html=1;entryX=0;entryY=0.5;entryDx=0;entryDy=0;dashed=1;dashPattern=8 8;strokeColor=default;align=center;verticalAlign=middle;fontFamily=Helvetica;fontSize=11;fontColor=default;labelBackgroundColor=default;startArrow=none;startFill=0;endArrow=classic;" parent="1" source="5X22lZWR7_RaZn1hTIYH-4" target="5X22lZWR7_RaZn1hTIYH-14" edge="1">
          <mxGeometry relative="1" as="geometry" />
        </mxCell>
        <mxCell id="5X22lZWR7_RaZn1hTIYH-18" style="rounded=0;orthogonalLoop=1;jettySize=auto;html=1;entryX=0;entryY=0.5;entryDx=0;entryDy=0;dashed=1;dashPattern=8 8;strokeColor=default;align=center;verticalAlign=middle;fontFamily=Helvetica;fontSize=11;fontColor=default;labelBackgroundColor=default;startArrow=none;startFill=0;endArrow=classic;" parent="1" source="5X22lZWR7_RaZn1hTIYH-4" target="5X22lZWR7_RaZn1hTIYH-17" edge="1">
          <mxGeometry relative="1" as="geometry" />
        </mxCell>
        <mxCell id="5X22lZWR7_RaZn1hTIYH-19" style="rounded=0;orthogonalLoop=1;jettySize=auto;html=1;entryX=0;entryY=0.5;entryDx=0;entryDy=0;dashed=1;dashPattern=8 8;strokeColor=default;align=center;verticalAlign=middle;fontFamily=Helvetica;fontSize=11;fontColor=default;labelBackgroundColor=default;startArrow=none;startFill=0;endArrow=classic;" parent="1" source="5X22lZWR7_RaZn1hTIYH-4" target="5X22lZWR7_RaZn1hTIYH-16" edge="1">
          <mxGeometry relative="1" as="geometry" />
        </mxCell>
        <mxCell id="5X22lZWR7_RaZn1hTIYH-21" style="rounded=0;orthogonalLoop=1;jettySize=auto;html=1;entryX=0;entryY=0.5;entryDx=0;entryDy=0;dashed=1;dashPattern=8 8;strokeColor=default;align=center;verticalAlign=middle;fontFamily=Helvetica;fontSize=11;fontColor=default;labelBackgroundColor=default;startArrow=none;startFill=0;endArrow=classic;" parent="1" source="5X22lZWR7_RaZn1hTIYH-4" target="5X22lZWR7_RaZn1hTIYH-20" edge="1">
          <mxGeometry relative="1" as="geometry" />
        </mxCell>
        <mxCell id="5X22lZWR7_RaZn1hTIYH-4" value="审批流维护" style="ellipse;whiteSpace=wrap;html=1;" parent="1" vertex="1">
          <mxGeometry x="-280" y="54" width="120" height="80" as="geometry" />
        </mxCell>
        <mxCell id="5X22lZWR7_RaZn1hTIYH-26" style="rounded=0;orthogonalLoop=1;jettySize=auto;html=1;entryX=0;entryY=0.5;entryDx=0;entryDy=0;dashed=1;dashPattern=8 8;strokeColor=default;align=center;verticalAlign=middle;fontFamily=Helvetica;fontSize=11;fontColor=default;labelBackgroundColor=default;startArrow=none;startFill=0;endArrow=classic;" parent="1" source="5X22lZWR7_RaZn1hTIYH-5" target="5X22lZWR7_RaZn1hTIYH-22" edge="1">
          <mxGeometry relative="1" as="geometry" />
        </mxCell>
        <mxCell id="5X22lZWR7_RaZn1hTIYH-27" style="rounded=0;orthogonalLoop=1;jettySize=auto;html=1;dashed=1;dashPattern=8 8;strokeColor=default;align=center;verticalAlign=middle;fontFamily=Helvetica;fontSize=11;fontColor=default;labelBackgroundColor=default;startArrow=none;startFill=0;endArrow=classic;" parent="1" source="5X22lZWR7_RaZn1hTIYH-5" target="5X22lZWR7_RaZn1hTIYH-23" edge="1">
          <mxGeometry relative="1" as="geometry" />
        </mxCell>
        <mxCell id="5X22lZWR7_RaZn1hTIYH-28" style="rounded=0;orthogonalLoop=1;jettySize=auto;html=1;entryX=0;entryY=0.5;entryDx=0;entryDy=0;dashed=1;dashPattern=8 8;strokeColor=default;align=center;verticalAlign=middle;fontFamily=Helvetica;fontSize=11;fontColor=default;labelBackgroundColor=default;startArrow=none;startFill=0;endArrow=classic;" parent="1" source="5X22lZWR7_RaZn1hTIYH-5" target="5X22lZWR7_RaZn1hTIYH-24" edge="1">
          <mxGeometry relative="1" as="geometry" />
        </mxCell>
        <mxCell id="5X22lZWR7_RaZn1hTIYH-29" style="rounded=0;orthogonalLoop=1;jettySize=auto;html=1;entryX=0;entryY=0.5;entryDx=0;entryDy=0;dashed=1;dashPattern=8 8;strokeColor=default;align=center;verticalAlign=middle;fontFamily=Helvetica;fontSize=11;fontColor=default;labelBackgroundColor=default;startArrow=none;startFill=0;endArrow=classic;" parent="1" source="5X22lZWR7_RaZn1hTIYH-5" target="5X22lZWR7_RaZn1hTIYH-25" edge="1">
          <mxGeometry relative="1" as="geometry" />
        </mxCell>
        <mxCell id="5X22lZWR7_RaZn1hTIYH-5" value="审批流审批" style="ellipse;whiteSpace=wrap;html=1;" parent="1" vertex="1">
          <mxGeometry x="-280" y="418" width="120" height="80" as="geometry" />
        </mxCell>
        <mxCell id="5X22lZWR7_RaZn1hTIYH-8" value="审批流模板创建" style="ellipse;whiteSpace=wrap;html=1;" parent="1" vertex="1">
          <mxGeometry x="24" y="-246" width="120" height="80" as="geometry" />
        </mxCell>
        <mxCell id="5X22lZWR7_RaZn1hTIYH-10" value="审批流列表查看" style="ellipse;whiteSpace=wrap;html=1;" parent="1" vertex="1">
          <mxGeometry x="274" y="-119" width="120" height="80" as="geometry" />
        </mxCell>
        <mxCell id="5X22lZWR7_RaZn1hTIYH-12" value="审批流编辑" style="ellipse;whiteSpace=wrap;html=1;" parent="1" vertex="1">
          <mxGeometry x="295" y="85" width="120" height="80" as="geometry" />
        </mxCell>
        <mxCell id="5X22lZWR7_RaZn1hTIYH-14" value="流程配置" style="ellipse;whiteSpace=wrap;html=1;" parent="1" vertex="1">
          <mxGeometry x="181" y="156" width="120" height="80" as="geometry" />
        </mxCell>
        <mxCell id="5X22lZWR7_RaZn1hTIYH-16" value="流程历史版本查看" style="ellipse;whiteSpace=wrap;html=1;" parent="1" vertex="1">
          <mxGeometry x="309" y="-13" width="120" height="80" as="geometry" />
        </mxCell>
        <mxCell id="5X22lZWR7_RaZn1hTIYH-17" value="流程查看" style="ellipse;whiteSpace=wrap;html=1;" parent="1" vertex="1">
          <mxGeometry x="154" y="-194" width="120" height="80" as="geometry" />
        </mxCell>
        <mxCell id="5X22lZWR7_RaZn1hTIYH-20" value="流程校验保存" style="ellipse;whiteSpace=wrap;html=1;" parent="1" vertex="1">
          <mxGeometry x="19" y="199" width="120" height="80" as="geometry" />
        </mxCell>
        <mxCell id="5X22lZWR7_RaZn1hTIYH-22" value="发起审批" style="ellipse;whiteSpace=wrap;html=1;" parent="1" vertex="1">
          <mxGeometry x="181" y="304" width="120" height="80" as="geometry" />
        </mxCell>
        <mxCell id="5X22lZWR7_RaZn1hTIYH-23" value="驳回审批" style="ellipse;whiteSpace=wrap;html=1;" parent="1" vertex="1">
          <mxGeometry x="244" y="389" width="120" height="80" as="geometry" />
        </mxCell>
        <mxCell id="5X22lZWR7_RaZn1hTIYH-24" value="查询审批详情" style="ellipse;whiteSpace=wrap;html=1;" parent="1" vertex="1">
          <mxGeometry x="262" y="482" width="120" height="80" as="geometry" />
        </mxCell>
        <mxCell id="5X22lZWR7_RaZn1hTIYH-25" value="删除审批流程" style="ellipse;whiteSpace=wrap;html=1;" parent="1" vertex="1">
          <mxGeometry x="164" y="560" width="120" height="80" as="geometry" />
        </mxCell>
      </root>
    </mxGraphModel>
  </diagram>
</mxfile>
